Coordinates
version=1
nRows=26
nColumns=22
inDegrees=yes

Units are S.I. units (second, meters, Newtons, ...)
If the header above contains a line with 'inDegrees', this indicates whether rotational values are in degrees (yes) or radians (no).

endheader
time	pelvis_tilt	pelvis_list	pelvis_rotation	pelvis_tx	pelvis_ty	pelvis_tz	hip_flexion_r	hip_adduction_r	hip_rotation_r	knee_angle_r	ankle_angle_r	subtalar_angle_r	hip_flexion_l	hip_adduction_l	hip_rotation_l	knee_angle_l	ankle_angle_l	subtalar_angle_l	lumbar_extension	lumbar_bending	lumbar_rotation
      1.15000000	      1.27083795	     -1.77667182	    -28.59924474	     -0.96189694	      0.90329774	     -0.39227886	     20.25118441	      0.08434400	     -0.96425144	    -45.31437329	     17.38049220	     -6.43646871	     -3.49916963	      1.63806572	    -13.33981790	    -16.26109836	     19.84799288	     -2.65706270	    -12.02372720	     -1.20821454	      1.66544756
      1.16000000	      1.20323488	     -1.92523627	    -28.30492966	     -0.95901716	      0.90333457	     -0.39190650	     20.74879928	      0.17090356	     -1.53694648	    -44.88652319	     17.37855805	     -6.62516050	     -3.77874419	      1.49910796	    -13.09894678	    -16.09137746	     19.89798345	     -2.57233021	    -12.12218874	     -0.98156445	      1.33544950
      1.17000000	      1.17808129	     -2.07393658	    -28.02497948	     -0.95602212	      0.90336567	     -0.39141861	     21.14169256	      0.22087433	     -2.11271996	    -44.26287944	     17.41854743	     -7.07785965	     -4.11300399	      1.37826257	    -12.89860029	    -15.91653037	     19.97160459	     -2.45815553	    -12.26136753	     -0.78235579	      1.03516401
      1.18000000	      1.10376581	     -2.19366068	    -27.74798480	     -0.95297008	      0.90324337	     -0.39083035	     21.55064480	      0.26849660	     -2.66146335	    -43.47925111	     17.40458165	     -7.30681762	     -4.37942859	      1.25505098	    -12.66777160	    -15.76455799	     20.04785034	     -2.41454361	    -12.33463919	     -0.58957324	      0.73143002
      1.19000000	      1.05251936	     -2.32125536	    -27.47963132	     -0.94981077	      0.90308387	     -0.39011876	     21.87379196	      0.30552212	     -3.21770253	    -42.53087870	     17.40626417	     -7.59445990	     -4.68582030	      1.13194139	    -12.45850348	    -15.60602827	     20.14934203	     -2.36843577	    -12.43466072	     -0.40764805	      0.47137305
      1.20000000	      1.00537281	     -2.45015549	    -27.22390249	     -0.94656798	      0.90285378	     -0.38927160	     22.14048942	      0.34889803	     -3.75654974	    -41.43956534	     17.40294075	     -7.87266098	     -5.00328691	      1.00286834	    -12.26605662	    -15.45342825	     20.26751273	     -2.31823111	    -12.53914724	     -0.23070132	      0.24247884
      1.21000000	      0.96083076	     -2.57419439	    -26.97683103	     -0.94324002	      0.90254659	     -0.38828304	     22.35584043	      0.39920047	     -4.27716150	    -40.21690571	     17.38075514	     -8.09010856	     -5.32797657	      0.87119061	    -12.09806124	    -15.30575449	     20.40546765	     -2.25970418	    -12.64041389	     -0.06821389	      0.03407278
      1.22000000	      0.92511854	     -2.69737932	    -26.73578961	     -0.93982673	      0.90217301	     -0.38715212	     22.51488603	      0.45877475	     -4.78711813	    -38.88032733	     17.33252589	     -8.23659584	     -5.66693729	      0.73437693	    -11.94688723	    -15.16579564	     20.56522044	     -2.18576017	    -12.74836025	      0.08154142	     -0.15991555
      1.23000000	      0.90160812	     -2.81526562	    -26.50400414	     -0.93631588	      0.90173607	     -0.38587699	     22.61902277	      0.52607190	     -5.27902000	    -37.44680036	     17.25626121	     -8.29985651	     -6.02516387	      0.60030555	    -11.81299566	    -15.02847261	     20.74271358	     -2.08976000	    -12.86257787	      0.21476673	     -0.33278201
      1.24000000	      0.89148033	     -2.92571731	    -26.28249207	     -0.93270921	      0.90123790	     -0.38444388	     22.67154177	      0.60289719	     -5.74763233	    -35.93180497	     17.15100473	     -8.25802253	     -6.40468257	      0.46996001	    -11.69464624	    -14.89177374	     20.93412926	     -1.96389605	    -12.98102002	      0.32502838	     -0.48691756
      1.25000000	      0.87785379	     -3.02048144	    -26.07170405	     -0.92901079	      0.90065046	     -0.38285813	     22.69886582	      0.69256670	     -6.18148879	    -34.35411773	     17.01001311	     -8.10319352	     -6.77904138	      0.34281228	    -11.58843308	    -14.76660165	     21.14037837	     -1.82066296	    -13.08186660	      0.41508801	     -0.62649013
      1.26000000	      0.86364897	     -3.09856655	    -25.87495407	     -0.92520674	      0.89997622	     -0.38112115	     22.70339453	      0.79239753	     -6.57577625	    -32.73198046	     16.84121344	     -7.83481673	     -7.15647838	      0.22341834	    -11.50109155	    -14.64459504	     21.35832328	     -1.65746272	    -13.16655106	      0.48421780	     -0.74594785
      1.27000000	      0.87339235	     -3.15740183	    -25.70440507	     -0.92129174	      0.89924698	     -0.37923293	     22.66875824	      0.89170276	     -6.90553473	    -31.08746777	     16.68144029	     -7.31731103	     -7.57256831	      0.13355555	    -11.42313238	    -14.50307873	     21.55477843	     -1.41861585	    -13.26231952	      0.51922554	     -0.83188103
      1.28000000	      0.80211804	     -3.19691441	    -25.53386882	     -0.91728708	      0.89832323	     -0.37721255	     22.70547121	      1.02753500	     -7.21201500	    -29.44142791	     16.44184391	     -6.96469201	     -7.88440962	      0.00591284	    -11.39160680	    -14.41243136	     21.81774136	     -1.27360581	    -13.25431431	      0.57516666	     -0.93432190
      1.29000000	      0.77880253	     -3.22836067	    -25.38306636	     -0.91317528	      0.89739508	     -0.37506685	     22.67871247	      1.15850311	     -7.44380282	    -27.80435377	     16.25238328	     -6.31963392	     -8.26494320	     -0.08655756	    -11.34015911	    -14.29720882	     22.03261137	     -1.02574892	    -13.29326933	      0.59688563	     -0.98993443
      1.30000000	      0.69972228	     -3.24626517	    -25.24108120	     -0.90899805	      0.89631630	     -0.37281101	     22.71242622	      1.31550075	     -7.62787995	    -26.21772355	     16.00481769	     -5.80622989	     -8.57088392	     -0.20461374	    -11.32828732	    -14.22536935	     22.28740243	     -0.83013538	    -13.26719755	      0.63703999	     -1.05042346
      1.31000000	      0.61079307	     -3.25398014	    -25.10797712	     -0.90474458	      0.89516398	     -0.37045947	     22.76198655	      1.47727291	     -7.75775843	    -24.70287737	     15.73389264	     -5.30157393	     -8.86489026	     -0.31999654	    -11.32464322	    -14.16373065	     22.53250573	     -0.62636587	    -13.22807022	      0.67599247	     -1.10504383
      1.32000000	      0.49174558	     -3.24869249	    -24.98201081	     -0.90043187	      0.89391782	     -0.36802249	     22.86095495	      1.64454689	     -7.84003996	    -23.29586864	     15.40193063	     -4.96010965	     -9.11514657	     -0.44285952	    -11.33841331	    -14.12883020	     22.78407537	     -0.47239081	    -13.15509501	      0.72251121	     -1.17111028
      1.33000000	      0.39942223	     -3.24998455	    -24.84492165	     -0.89604552	      0.89267630	     -0.36553627	     22.93778475	      1.79885465	     -7.89837700	    -22.00734254	     15.09041228	     -4.56679778	     -9.38268825	     -0.56456846	    -11.31787018	    -14.12376471	     23.01426479	     -0.26963488	    -13.12516427	      0.77232937	     -1.23769746
      1.34000000	      0.30045284	     -3.24325506	    -24.70984394	     -0.89159650	      0.89138972	     -0.36296461	     23.05293610	      1.94038711	     -7.94485502	    -20.88824448	     14.74435115	     -4.29404757	     -9.62947743	     -0.68490412	    -11.26350256	    -14.15076846	     23.22803186	     -0.09356885	    -13.09150045	      0.81929850	     -1.29529963
      1.35000000	      0.23274212	     -3.24837340	    -24.56178664	     -0.88702296	      0.89013036	     -0.36032993	     23.14651837	      2.06142153	     -8.00801108	    -19.94049191	     14.45252353	     -4.03930683	     -9.90541876	     -0.80852761	    -11.19435756	    -14.20291596	     23.42106438	      0.11837157	    -13.09763912	      0.87802438	     -1.39643631
      1.36000000	      0.16006395	     -3.24415224	    -24.41415365	     -0.88234363	      0.88884228	     -0.35759604	     23.28327807	      2.16027795	     -8.09282171	    -19.21001282	     14.14332117	     -3.96152761	    -10.16437136	     -0.92608533	    -11.06645619	    -14.28584421	     23.59051186	      0.25067090	    -13.09419067	      0.93247263	     -1.46758388
      1.37000000	      0.12581409	     -3.28416396	    -24.23391144	     -0.87743249	      0.88762196	     -0.35474966	     23.36058330	      2.25679899	     -8.26934848	    -18.66514722	     13.91795948	     -3.92364412	    -10.48130398	     -1.08274946	    -10.92543832	    -14.39516705	     23.74758976	      0.41256596	    -13.13601886	      1.02805835	     -1.59844746
      1.38000000	      0.09998818	     -3.32356718	    -24.05453480	     -0.87230054	      0.88639700	     -0.35175019	     23.44011822	      2.33883683	     -8.45344294	    -18.33300766	     13.75357276	     -3.95645051	    -10.82149158	     -1.23220573	    -10.73045631	    -14.50930806	     23.87926073	      0.53404156	    -13.16451375	      1.12603062	     -1.75095604
      1.39000000	      0.12747310	     -3.42591318	    -23.81858931	     -0.86682844	      0.88527432	     -0.34860758	     23.41871139	      2.41223919	     -8.86811993	    -18.18467266	     13.69454678	     -4.07056401	    -11.23516546	     -1.44548027	    -10.55192630	    -14.67456133	     23.96587309	      0.67821396	    -13.24712133	      1.27347134	     -1.92163140
      1.40000000	      0.17075018	     -3.55979685	    -23.57101826	     -0.86106250	      0.88418385	     -0.34528831	     23.34668323	      2.50123643	     -9.30063568	    -18.21055210	     13.67953661	     -4.27748935	    -11.70316945	     -1.68474758	    -10.32917100	    -14.83370557	     24.02161185	      0.81487409	    -13.32755073	      1.45619819	     -2.11870241
